# xmcd
#
# Track frame offsets: 
#        150
#        13740
#        27184
#        39200
#        53754
#        79800
#        94617
#        112051
#        125258
#        136074
#
# Disc length: 2004 seconds
#
# Revision: 0
# Processed by: cddbd v1.5.2PL0 Copyright (c) Steve Scherf et al.
# Submitted via: ExactAudioCopy v0.99pb5
#
DISCID=7307d20a
DTITLE=Mike Coston - Just Playing
DYEAR=2007
DGENRE=Blues
TTITLE0=Baby Let's Go
TTITLE1=No Matter What I Do
TTITLE2=Take One Step At A Time
TTITLE3=Strat Brat
TTITLE4=Evil Man
TTITLE5=Hush Hush
TTITLE6=Too Long
TTITLE7=I Gotta Go
TTITLE8=Just Playing
TTITLE9=Azure
EXTD=
EXTT0=
EXTT1=
EXTT2=
EXTT3=
EXTT4=
EXTT5=
EXTT6=
EXTT7=
EXTT8=
EXTT9=
PLAYORDER=
